HIERARCHY
ROOT Hips
{
	OFFSET 0.000000 0.000000 0.000000
	CHANNELS 6 Xposition Yposition Zposition Zrotation Yrotation Xrotation 
	JOINT LHipJoint
	{
		OFFSET 0.000000 0.000000 0.000000
		CHANNELS 3 Zrotation Yrotation Xrotation
		JOINT LeftUpLeg
		{
			OFFSET 1.363060 -1.794630 0.839290
			CHANNELS 3 Zrotation Yrotation Xrotation
			JOINT LeftLeg
			{
				OFFSET 2.448110 -6.726130 0.000000
				CHANNELS 3 Zrotation Yrotation Xrotation
				JOINT LeftFoot
				{
					OFFSET 2.562200 -7.039590 0.000000
					CHANNELS 3 Zrotation Yrotation Xrotation
					JOINT LeftToeBase
					{
						OFFSET 0.157640 -0.433110 2.322550
						CHANNELS 3 Zrotation Yrotation Xrotation
						End Site
						{
							OFFSET 0.000000 0.000000 0.000000
						}
					}
				}
			}
		}
	}
	JOINT RHipJoint
	{
		OFFSET 0.000000 0.000000 0.000000
		CHANNELS 3 Zrotation Yrotation Xrotation
		JOINT RightUpLeg
		{
			OFFSET -1.305520 -1.794630 0.839290
			CHANNELS 3 Zrotation Yrotation Xrotation
			JOINT RightLeg
			{
				OFFSET -2.542530 -6.985550 0.000000
				CHANNELS 3 Zrotation Yrotation Xrotation
				JOINT RightFoot
				{
					OFFSET -2.568260 -7.056230 0.000000
					CHANNELS 3 Zrotation Yrotation Xrotation
					JOINT RightToeBase
					{
						OFFSET -0.164730 -0.452590 2.363150
						CHANNELS 3 Zrotation Yrotation Xrotation
						End Site
						{
							OFFSET 0.000000 0.000000 0.000000
						}
					}
				}
			}
		}
	}
	JOINT LowerBack
	{
		OFFSET 0.000000 0.000000 0.000000
		CHANNELS 3 Zrotation Yrotation Xrotation
		JOINT Spine
		{
			OFFSET 0.028270 2.035590 -0.193380
			CHANNELS 3 Zrotation Yrotation Xrotation
			JOINT Spine1
			{
				OFFSET 0.056720 2.048850 -0.042750
				CHANNELS 3 Zrotation Yrotation Xrotation
				JOINT Neck
				{
					OFFSET 0.000000 0.000000 0.000000
					CHANNELS 3 Zrotation Yrotation Xrotation
					JOINT Neck1
					{
						OFFSET -0.054170 1.746240 0.172020
						CHANNELS 3 Zrotation Yrotation Xrotation
						JOINT Head
						{
							OFFSET 0.104070 1.761360 -0.123970
							CHANNELS 3 Zrotation Yrotation Xrotation
							End Site
							{
								OFFSET 0.000000 0.000000 0.000000
							}
						}
					}
				}
				JOINT LeftShoulder
				{
					OFFSET 0.000000 0.000000 0.000000
					CHANNELS 3 Zrotation Yrotation Xrotation
					JOINT LeftArm
					{
						OFFSET 3.362410 1.200890 -0.311210
						CHANNELS 3 Zrotation Yrotation Xrotation
						JOINT LeftForeArm
						{
							OFFSET 4.983000 -0.000000 -0.000000
							CHANNELS 3 Zrotation Yrotation Xrotation
							JOINT LeftHand
							{
								OFFSET 3.483560 -0.000000 -0.000000
								CHANNELS 3 Zrotation Yrotation Xrotation
								JOINT LeftFingerBase
								{
									OFFSET 0.000000 0.000000 0.000000
									CHANNELS 3 Zrotation Yrotation Xrotation
									JOINT LeftHandIndex1
									{
										OFFSET 0.715260 -0.000000 -0.000000
										CHANNELS 3 Zrotation Yrotation Xrotation
										End Site
										{
											OFFSET 0.000000 0.000000 0.000000
										}
									}
								}
								JOINT LThumb
								{
									OFFSET 0.000000 0.000000 0.000000
									CHANNELS 3 Zrotation Yrotation Xrotation
									End Site
									{
										OFFSET 0.000000 0.000000 0.000000
									}
								}
							}
						}
					}
				}
				JOINT RightShoulder
				{
					OFFSET 0.000000 0.000000 0.000000
					CHANNELS 3 Zrotation Yrotation Xrotation
					JOINT RightArm
					{
						OFFSET -3.136600 1.374050 -0.404650
						CHANNELS 3 Zrotation Yrotation Xrotation
						JOINT RightForeArm
						{
							OFFSET -5.241900 -0.000000 -0.000000
							CHANNELS 3 Zrotation Yrotation Xrotation
							JOINT RightHand
							{
								OFFSET -3.444170 -0.000000 -0.000000
								CHANNELS 3 Zrotation Yrotation Xrotation
								JOINT RightFingerBase
								{
									OFFSET 0.000000 0.000000 0.000000
									CHANNELS 3 Zrotation Yrotation Xrotation
									JOINT RightHandIndex1
									{
										OFFSET -0.622530 -0.000000 -0.000000
										CHANNELS 3 Zrotation Yrotation Xrotation
										End Site
										{
											OFFSET 0.000000 0.000000 0.000000
										}
									}
								}
								JOINT RThumb
								{
									OFFSET 0.000000 0.000000 0.000000
									CHANNELS 3 Zrotation Yrotation Xrotation
									End Site
									{
										OFFSET 0.000000 0.000000 0.000000
									}
								}
							}
						}
					}
				}
			}
		}
	}
}
MOTION
Frames: 8
Frame Time: 0.008333
4.159377 17.799074 4.948534 22.043743 -87.105545 -17.648482 -3.378146 -0.294698 1.469862 -17.598348 -6.747354 11.859833 0.052315 7.634708 19.949407 -179.444868 5.729625 -14.500940 1.140900 -6.783100 -19.074300 0.478689 2.552985 -3.682026 10.555076 8.450768 -45.543569 -8.125892 -17.021855 51.237541 -0.440298 -17.831771 30.872635 -0.589400 -4.915300 13.667200 -3.552048 -5.891172 4.000759 1.929589 -7.441185 -5.403986 7.952305 -3.949127 -2.304328 -4.411518 -2.516217 -16.170128 6.451675 -2.931540 7.616449 2.590100 -1.223000 7.804000 5.315257 3.677207 -0.045238 -86.641517 -13.333080 39.439683 45.657001 -55.464418 -19.718752 -0.179697 1.861295 3.408526 14.060799 10.788849 2.261900 -7.125000 0.000000 0.000000 -10.838600 38.911900 1.648400 -2.749933 -4.273161 -2.439356 83.109408 -20.741527 14.531758 -14.285224 29.404391 -4.777424 -0.260037 0.861965 6.090406 -7.943162 -10.714964 1.531100 7.125000 0.000000 0.000000 17.247100 -41.007900 1.757100 
3.939311 17.779133 4.912397 16.408397 -86.729028 -11.805303 -3.363706 -0.407286 1.391788 -16.981872 -6.606871 11.534032 0.223975 8.013774 21.097694 -179.541419 6.960185 -13.627522 1.195000 -6.936500 -19.527300 0.585877 2.448095 -3.521508 11.275643 7.855855 -42.868436 -7.350249 -16.573106 49.525530 0.038899 -14.655055 26.283658 -0.228100 -3.074400 8.485900 -3.404191 -5.933882 3.390949 1.963676 -7.467851 -5.445316 7.948341 -3.983078 -2.158843 -4.433248 -2.541062 -16.137433 6.368469 -2.965891 7.754121 2.561900 -1.249300 7.839900 5.358220 3.638476 -0.027875 -86.852511 -12.181730 40.025307 44.645262 -55.089571 -19.022463 -0.172323 1.873920 3.720463 14.023440 11.053466 2.320000 -7.125000 0.000000 0.000000 -10.916000 39.164800 1.591700 -2.757357 -4.276418 -2.440716 83.299022 -20.398755 14.807746 -14.569039 29.764490 -4.915698 -0.255378 0.865977 5.889550 -8.302152 -10.627150 1.594700 7.125000 0.000000 0.000000 16.912000 -40.962700 1.740100 
3.719145 17.759799 4.874437 11.236498 -86.379624 -6.439535 -3.314983 -0.516972 1.296127 -16.273155 -6.443532 10.942526 0.461901 8.513215 22.606745 -179.669750 8.435473 -12.378013 1.212200 -6.984500 -19.669400 0.722497 2.358835 -3.343682 12.044844 7.307456 -40.314015 -6.603719 -16.111222 47.809560 0.340087 -11.524613 21.449036 -0.086000 -1.891500 5.205800 -3.213604 -5.942693 2.797235 1.997410 -7.458676 -5.491051 7.952656 -3.994653 -2.037555 -4.470182 -2.571207 -16.112138 6.273996 -3.003972 7.925588 2.532500 -1.279400 7.894100 5.402808 3.599283 -0.012409 -87.076080 -11.026943 40.606326 43.525462 -54.642017 -18.262131 -0.165876 1.886043 4.109399 13.912423 11.340358 2.371600 -7.125000 0.000000 0.000000 -11.058800 39.436000 1.538200 -2.763730 -4.274341 -2.441483 83.502049 -20.032940 15.074237 -14.840418 30.099732 -5.047699 -0.249450 0.869304 5.723359 -8.669595 -10.490959 1.652200 7.125000 0.000000 0.000000 16.555500 -40.870400 1.740000 
3.502015 17.741679 4.835971 6.034111 -86.087027 -1.065326 -3.236480 -0.624840 1.184350 -15.455504 -6.255958 10.053059 0.784915 9.138150 24.509191 -179.830578 10.131625 -10.574624 1.183300 -6.903700 -19.430300 0.886924 2.280355 -3.157894 12.885897 6.839020 -37.935111 -5.914586 -15.639412 46.030548 0.479925 -8.986158 16.948604 -0.065600 -1.653100 4.547800 -2.950279 -5.900502 2.256383 2.029025 -7.392969 -5.544546 7.952087 -3.972846 -1.976330 -4.521779 -2.605909 -16.048832 6.178709 -3.046107 8.105684 2.506200 -1.313400 7.948300 5.449036 3.556633 0.001232 -87.313278 -9.872424 41.179660 42.299151 -54.112476 -17.440650 -0.157714 1.895731 4.573248 13.742926 11.591464 2.403800 -7.125000 0.000000 0.000000 -11.246200 39.669300 1.499500 -2.768641 -4.264584 -2.441592 83.724926 -19.657640 15.338796 -15.103542 30.414534 -5.173605 -0.244374 0.872667 5.583460 -9.046339 -10.396276 1.715900 7.125000 0.000000 0.000000 16.203700 -40.818300 1.722200 
3.290857 17.725686 4.797910 0.148622 -85.853841 4.952441 -3.125178 -0.730622 1.055114 -14.515736 -6.047029 8.876350 1.208621 9.877886 26.799110 179.995446 11.956492 -8.091943 1.092600 -6.642800 -18.661400 1.080834 2.210665 -2.971373 13.817871 6.476849 -35.747979 -5.281136 -15.153821 44.159910 0.535889 -7.273165 13.137623 -0.117100 -2.205800 6.074800 -2.570050 -5.798905 1.807358 2.058650 -7.259884 -5.596495 7.931710 -3.915078 -1.963948 -4.583436 -2.646044 -15.997073 6.088102 -3.092870 8.287201 2.485100 -1.350000 8.010900 5.495031 3.509480 0.012554 -87.556881 -8.746278 41.720204 41.010818 -53.515121 -16.591817 -0.147114 1.902890 5.110824 13.536821 11.802556 2.418900 -7.125000 0.000000 0.000000 -11.458800 39.862100 1.473500 -2.772160 -4.247258 -2.439058 83.975365 -19.215507 15.603009 -15.352608 30.697750 -5.288778 -0.240416 0.875591 5.481486 -9.429285 -10.362728 1.789000 7.125000 0.000000 0.000000 15.864500 -40.825000 1.681300 
3.088507 17.712526 4.761266 -7.300534 -85.678567 12.482028 -2.969150 -0.827138 0.908627 -13.430915 -5.816276 7.422541 1.749455 10.718814 29.470744 179.849864 13.770404 -4.951766 0.927400 -6.135100 -17.176900 1.309723 2.155460 -2.788546 14.873390 6.275508 -33.764913 -4.703696 -14.663285 42.264587 0.571712 -6.295667 10.070445 -0.233400 -3.109100 8.582600 -2.008911 -5.624848 1.479032 2.088583 -7.045050 -5.643861 7.877615 -3.814560 -2.005653 -4.655313 -2.694060 -15.980534 6.005461 -3.146096 8.469499 2.471500 -1.389200 8.088300 5.540671 3.457231 0.020781 -87.807235 -7.673272 42.212826 39.656992 -52.840619 -15.720189 -0.125289 1.905484 5.733214 13.405810 11.888901 2.415800 -7.125000 0.000000 0.000000 -11.590200 39.938200 1.468900 -2.773900 -4.220886 -2.433432 84.249912 -18.681935 15.884692 -15.589338 30.950145 -5.393064 -0.237172 0.877910 5.417287 -9.831423 -10.385784 1.874700 7.125000 0.000000 0.000000 15.524200 -40.887500 1.618500 
2.897189 17.702302 4.726849 -16.647533 -85.533461 21.849658 -2.766283 -0.891648 0.752003 -12.223709 -5.581888 5.714144 2.418115 11.646613 32.507240 179.774692 15.486008 -1.325468 0.701400 -5.353000 -14.918200 1.567804 2.135507 -2.621166 16.056676 6.265288 -31.966185 -4.196670 -14.184492 40.460221 0.619676 -5.871418 7.695174 -0.374500 -3.930500 10.881200 -1.250362 -5.369504 1.283022 2.118328 -6.738092 -5.680885 7.775173 -3.662854 -2.090987 -4.721562 -2.746329 -15.980441 5.927876 -3.204456 8.621847 2.460500 -1.430200 8.162100 5.585831 3.404103 0.027505 -88.059138 -6.645401 42.636301 38.284015 -52.109784 -14.854470 -0.098787 1.903830 6.445792 13.275499 11.910608 2.397600 -7.125000 0.000000 0.000000 -11.710400 39.953300 1.480200 -2.773635 -4.180988 -2.421761 84.547210 -18.035233 16.197862 -15.808972 31.166589 -5.483904 -0.234372 0.879347 5.379322 -10.255898 -10.456424 1.973300 7.125000 0.000000 0.000000 15.176700 -40.997900 1.537900 
2.717108 17.695217 4.695166 -27.588352 -85.389889 32.744083 -2.545454 -0.910068 0.594437 -10.948091 -5.352701 3.778767 3.224422 12.650260 35.900073 179.783770 17.114102 2.473721 0.458900 -4.345300 -12.050200 1.815360 2.164122 -2.483988 17.361872 6.429662 -30.326354 -3.782696 -13.744043 38.890753 0.675525 -5.743973 5.856731 -0.510600 -4.580400 12.715600 -0.332520 -5.031916 1.222929 2.145209 -6.331822 -5.699451 7.611205 -3.453222 -2.191791 -4.773696 -2.800224 -16.018782 5.855719 -3.265078 8.733544 2.451500 -1.470300 8.230700 5.629688 3.356942 0.032956 -88.306656 -5.684316 42.970478 36.903612 -51.327352 -14.006596 -0.063891 1.896978 7.239144 13.207910 11.841423 2.369100 -7.125000 0.000000 0.000000 -11.763800 39.885900 1.507000 -2.772726 -4.123716 -2.401518 84.860772 -17.241400 16.567367 -16.011102 31.348156 -5.560885 -0.233014 0.879474 5.383401 -10.676005 -10.615363 2.087500 7.125000 0.000000 0.000000 14.856300 -41.193300 1.430300 
